<?xml version="1.0" encoding="UTF-8"?>
<svg id="Layer_2" data-name="Layer 2" xmlns="http://www.w3.org/2000/svg" viewBox="0 0 121.01 127.06">
  <defs>
    <style>
      .cls-1 {
        fill-rule: evenodd;
      }
    </style>
  </defs>
  <g id="Layer_1-2" data-name="Layer 1">
    <path class="cls-1" d="m96.06,47.9l15.68-11.11-15.85-4.13.17,15.25Zm.39,47.69l15.71-5.01-16.21-11.49.5,16.5Zm-5.61-65.24c-3.14-3.34-15.38-14.06-38.58-8.5-28.02,6.72-45.56,47.04-19.82,71.69,26.58,25.45,55.46,6.33,59.03,3.8l-.44-14.59c-6.07,8.67-16.13,14.34-27.51,14.34-18.52,0-33.56-15.04-33.56-33.56s15.03-33.56,33.56-33.56c11.35,0,21.39,5.65,27.47,14.28l-.15-13.91Zm21.87,1.5c-10.42-16.13-28.56-26.82-49.18-26.82C31.24,5.02,5.02,31.24,5.02,63.53s26.22,58.51,58.51,58.51c20.37,0,38.32-10.43,48.8-26.24l-18.17,5.79c-5.14,3.56-36.38,23.17-65.19-4.42C.18,69.59,19.75,24.49,51.09,16.97c26.28-6.3,40.07,6.23,43.66,10.19l17.96,4.69Zm7.3,60.78l1-1.94-29.45-20.86-1.1,3.15c-3.9,11.12-14.49,19.09-26.93,19.09-15.75,0-28.53-12.79-28.53-28.53s12.79-28.53,28.53-28.53c12.44,0,23.03,7.98,26.93,19.09l1.1,3.14,29.45-20.86-1-1.94C109.45,13.99,88.11,0,63.53,0,28.47,0,0,28.47,0,63.53s28.47,63.53,63.53,63.53c24.58,0,45.92-13.99,56.48-34.43Z"/>
  </g>
</svg>