<?xml version="1.0" encoding="UTF-8"?>
<svg id="Layer_2" data-name="Layer 2" xmlns="http://www.w3.org/2000/svg" viewBox="0 0 510.29 74.26">
  <defs>
    <style>
      .cls-1 {
        fill: #2f82ff;
      }
    </style>
  </defs>
  <g id="Layer_1-2" data-name="Layer 1">
    <g>
      <path class="cls-1" d="m10.43,56.57c-3.25-1.8-5.81-4.32-7.66-7.58-1.85-3.25-2.78-6.91-2.78-10.99s.92-7.72,2.78-10.95c1.85-3.23,4.4-5.74,7.66-7.54,3.25-1.8,6.94-2.7,11.07-2.7,3.6,0,6.81.7,9.64,2.1,2.83,1.4,5.06,3.45,6.7,6.15l-4.2,2.86c-1.38-2.06-3.12-3.61-5.24-4.64-2.12-1.03-4.42-1.55-6.9-1.55-3.01,0-5.73.67-8.13,2.02-2.41,1.35-4.28,3.27-5.63,5.75-1.35,2.49-2.02,5.32-2.02,8.49s.67,6.07,2.02,8.53c1.35,2.46,3.23,4.36,5.63,5.71,2.41,1.35,5.12,2.02,8.13,2.02,2.49,0,4.79-.5,6.9-1.51,2.11-1,3.86-2.54,5.24-4.6l4.2,2.86c-1.64,2.7-3.89,4.75-6.74,6.15-2.86,1.4-6.06,2.1-9.6,2.1-4.13,0-7.81-.9-11.07-2.7Z"/>
      <path class="cls-1" d="m54.35,56.53c-3.23-1.82-5.77-4.35-7.62-7.58-1.85-3.23-2.78-6.88-2.78-10.95s.92-7.72,2.78-10.95c1.85-3.23,4.39-5.74,7.62-7.54,3.23-1.8,6.85-2.7,10.87-2.7s7.64.9,10.87,2.7c3.23,1.8,5.75,4.31,7.58,7.54,1.82,3.23,2.74,6.88,2.74,10.95s-.91,7.72-2.74,10.95c-1.82,3.23-4.35,5.75-7.58,7.58-3.23,1.82-6.85,2.74-10.87,2.74s-7.64-.91-10.87-2.74Zm18.84-4.28c2.35-1.35,4.19-3.27,5.51-5.75,1.32-2.49,1.98-5.32,1.98-8.49s-.66-6-1.98-8.49c-1.32-2.49-3.16-4.4-5.51-5.75-2.35-1.35-5.01-2.02-7.97-2.02s-5.62.67-7.97,2.02c-2.35,1.35-4.21,3.27-5.55,5.75-1.35,2.49-2.02,5.32-2.02,8.49s.67,6,2.02,8.49c1.35,2.49,3.2,4.4,5.55,5.75,2.35,1.35,5.01,2.02,7.97,2.02s5.62-.67,7.97-2.02Z"/>
      <path class="cls-1" d="m162.28,21.34c2.99,3.02,4.48,7.46,4.48,13.33v24.2h-5.63v-23.64c0-4.34-1.05-7.64-3.13-9.92-2.09-2.27-5.04-3.41-8.85-3.41-4.34,0-7.75,1.34-10.23,4.01-2.49,2.67-3.73,6.36-3.73,11.07v21.9h-5.63v-23.64c0-4.34-1.05-7.64-3.13-9.92-2.09-2.27-5.07-3.41-8.93-3.41-4.28,0-7.68,1.34-10.2,4.01-2.51,2.67-3.77,6.36-3.77,11.07v21.9h-5.63V17.14h5.39v7.62c1.48-2.54,3.54-4.5,6.19-5.87,2.64-1.37,5.68-2.06,9.12-2.06s6.52.74,9.08,2.22c2.56,1.48,4.48,3.68,5.75,6.59,1.53-2.75,3.74-4.91,6.62-6.47,2.88-1.56,6.17-2.34,9.88-2.34,5.24,0,9.35,1.51,12.34,4.52Z"/>
      <path class="cls-1" d="m214.21,19.48c3.17,1.77,5.66,4.27,7.46,7.5,1.8,3.23,2.7,6.9,2.7,11.03s-.9,7.88-2.7,11.11c-1.8,3.23-4.27,5.73-7.42,7.5-3.15,1.77-6.7,2.66-10.67,2.66-3.38,0-6.44-.7-9.16-2.1-2.72-1.4-4.96-3.45-6.7-6.15v23.25h-5.63V17.14h5.39v8.25c1.69-2.75,3.93-4.87,6.7-6.35,2.78-1.48,5.91-2.22,9.4-2.22,3.91,0,7.46.89,10.63,2.66Zm-3.09,32.77c2.38-1.35,4.24-3.27,5.59-5.75,1.35-2.49,2.02-5.32,2.02-8.49s-.67-5.99-2.02-8.45c-1.35-2.46-3.21-4.38-5.59-5.75-2.38-1.37-5.03-2.06-7.93-2.06s-5.62.69-7.97,2.06c-2.35,1.38-4.2,3.29-5.55,5.75-1.35,2.46-2.02,5.28-2.02,8.45s.67,6,2.02,8.49c1.35,2.49,3.2,4.4,5.55,5.75,2.35,1.35,5.01,2.02,7.97,2.02s5.55-.67,7.93-2.02Z"/>
      <path class="cls-1" d="m235.79,6.82c-.79-.79-1.19-1.75-1.19-2.86s.4-1.98,1.19-2.78c.79-.79,1.77-1.19,2.94-1.19s2.14.38,2.94,1.15c.79.77,1.19,1.68,1.19,2.74,0,1.16-.4,2.14-1.19,2.94-.79.79-1.77,1.19-2.94,1.19s-2.14-.4-2.94-1.19Zm.08,10.31h5.63v41.73h-5.63V17.14Z"/>
      <path class="cls-1" d="m257.21,0h5.63v58.87h-5.63V0Z"/>
      <path class="cls-1" d="m314.89,39.75h-34.91c.32,4.34,1.98,7.84,5,10.51,3.01,2.67,6.82,4.01,11.42,4.01,2.59,0,4.97-.46,7.14-1.39,2.17-.93,4.05-2.29,5.63-4.09l3.17,3.65c-1.85,2.22-4.16,3.91-6.94,5.08-2.78,1.16-5.83,1.75-9.16,1.75-4.28,0-8.08-.91-11.38-2.74-3.31-1.82-5.88-4.35-7.74-7.58-1.85-3.23-2.78-6.88-2.78-10.95s.89-7.72,2.66-10.95c1.77-3.23,4.21-5.74,7.3-7.54,3.09-1.8,6.57-2.7,10.43-2.7s7.32.9,10.39,2.7c3.07,1.8,5.47,4.3,7.22,7.5,1.75,3.2,2.62,6.86,2.62,10.99l-.08,1.75Zm-30.27-14.24c-2.72,2.57-4.27,5.91-4.64,10.04h29.59c-.37-4.13-1.92-7.47-4.64-10.04-2.73-2.57-6.12-3.85-10.19-3.85s-7.39,1.28-10.12,3.85Z"/>
      <path class="cls-1" d="m332.7,56.57c-3.25-1.8-5.81-4.32-7.66-7.58-1.85-3.25-2.78-6.91-2.78-10.99s.92-7.72,2.78-10.95c1.85-3.23,4.4-5.74,7.66-7.54,3.25-1.8,6.94-2.7,11.07-2.7,3.6,0,6.81.7,9.64,2.1,2.83,1.4,5.06,3.45,6.7,6.15l-4.21,2.86c-1.38-2.06-3.12-3.61-5.24-4.64-2.12-1.03-4.42-1.55-6.9-1.55-3.02,0-5.73.67-8.13,2.02-2.41,1.35-4.28,3.27-5.63,5.75-1.35,2.49-2.02,5.32-2.02,8.49s.67,6.07,2.02,8.53c1.35,2.46,3.23,4.36,5.63,5.71,2.41,1.35,5.12,2.02,8.13,2.02,2.49,0,4.79-.5,6.9-1.51,2.11-1,3.86-2.54,5.24-4.6l4.21,2.86c-1.64,2.7-3.89,4.75-6.74,6.15-2.86,1.4-6.06,2.1-9.6,2.1-4.13,0-7.82-.9-11.07-2.7Z"/>
      <path class="cls-1" d="m382.44,18.96c2.62-1.43,5.86-2.14,9.72-2.14v5.47l-1.35-.08c-4.39,0-7.83,1.35-10.31,4.05-2.49,2.7-3.73,6.48-3.73,11.35v21.26h-5.63V17.14h5.39v8.17c1.32-2.8,3.29-4.92,5.91-6.35Z"/>
      <path class="cls-1" d="m438.26,39.75h-34.91c.32,4.34,1.98,7.84,5,10.51,3.02,2.67,6.82,4.01,11.42,4.01,2.59,0,4.97-.46,7.14-1.39,2.17-.93,4.05-2.29,5.63-4.09l3.17,3.65c-1.85,2.22-4.17,3.91-6.94,5.08-2.78,1.16-5.83,1.75-9.16,1.75-4.28,0-8.08-.91-11.39-2.74-3.31-1.82-5.88-4.35-7.73-7.58-1.85-3.23-2.78-6.88-2.78-10.95s.89-7.72,2.66-10.95c1.77-3.23,4.21-5.74,7.3-7.54,3.09-1.8,6.57-2.7,10.43-2.7s7.33.9,10.39,2.7c3.07,1.8,5.47,4.3,7.22,7.5,1.75,3.2,2.62,6.86,2.62,10.99l-.08,1.75Zm-30.27-14.24c-2.73,2.57-4.27,5.91-4.64,10.04h29.59c-.37-4.13-1.92-7.47-4.64-10.04-2.72-2.57-6.12-3.85-10.19-3.85s-7.39,1.28-10.12,3.85Z"/>
      <path class="cls-1" d="m510.29,17.14l-15.79,41.73h-5.32l-13.17-34.19-13.17,34.19h-5.32l-15.71-41.73h5.4l13.09,35.46,13.41-35.46h4.84l13.33,35.46,13.25-35.46h5.16Z"/>
    </g>
  </g>
</svg>